<?xml version="1.0" encoding="UTF-8"?>
<svg id="Hunter" xmlns="http://www.w3.org/2000/svg" viewBox="0 0 40 40">
  <defs>
    <style>
      .cls-1 {
        fill: #f58220;
      }

      .cls-2 {
        fill: #0d0d0d;
      }
    </style>
  </defs>
  <g id="Hunter_DBG_copy" data-name="Hunter_DBG copy">
    <g>
      <rect x=".5" y=".5" width="39" height="39" rx="11.5" ry="11.5"/>
      <path class="cls-2" d="M28,1c6.07,0,11,4.93,11,11v16c0,6.07-4.93,11-11,11H12c-6.07,0-11-4.93-11-11V12C1,5.93,5.93,1,12,1h16M28,0H12C5.4,0,0,5.4,0,12v16c0,6.6,5.4,12,12,12h16c6.6,0,12-5.4,12-12V12c0-6.6-5.4-12-12-12h0Z"/>
    </g>
  </g>
  <g id="Hunter_DCritical">
    <path class="cls-1" d="M18.05,36.01c-5.09-.04-6.95-2.26-7.48-6.18-.18-1.32-.16-3.34-.41-4.06-.93-2.68-3.83-.44-3.83-.44,0,0,.66-2.65,3.66-2.64,2.75,0,4.9,2.74,4.9,2.74,0,0-1.69-2.08-2.03-4.52-.19-1.35-.15-3.08.79-4.23.47-.57,1.25-1.31,1.79-2.3,1.26-2.3-2.54-6.11-2.54-6.11,0,0,5.44,2.23,5.13,5.75-.25,2.83.94,4.9.94,4.9,0,0-.22-2.48.87-4.29,1.97-3.27,3.05-5.06,2.08-7.58-.78-2-2.01-3.07-2.01-3.07,0,0,3.68,1.41,4.77,4.7,1.16,3.47-2.81,6.11-2.55,10.63.07,1.33.75,2.79.75,2.79,0,0,.15-2.92,1.58-4.61,2.45-2.92,6.78-2.76,6.78-2.76,0,0-3.84,1.43-4.72,3.97-.85,2.48.69,3.76.69,3.76,0,0,.87-1.4,2.78-1.14,1.55.21,2.72,1.08,3.29,1.6.25.23.39.38.39.38,0,0-.17-.08-.46-.14-2.63-.55-3.7-.34-4.35.96-1.04,2.08.71,4.37-.41,7.2-1.22,3.06-4.19,4.57-8.13,4.69.02,0,3.21-1.26,4.21-2.69,3.09-4.4.4-8.81.4-8.81,0,0,.24,3.27-1.21,5.24-1.24,1.68-2.77,1.53-2.77,1.53,0,0,1.51-1.88.73-4.2-.72-2.13-2.36-2.33-3.82-3.96-2.18-2.44-1.87-5.64-1.87-5.64,0,0-1.11,1.99-.08,4.98.72,2.09,2.34,3.65,2.41,5.53.13,3.19-.86,4.23-2.59,3.09-1.87-1.23-3.24-4.61-3.24-4.61,0,0-.41,1.92.32,4.19.94,2.94,2.6,4.28,5.22,5.34"/>
  </g>
</svg>