<?xml version="1.0" encoding="UTF-8"?>
<svg id="Hunter" xmlns="http://www.w3.org/2000/svg" viewBox="0 0 40 40">
  <defs>
    <style>
      .cls-1 {
        fill: #f58220;
      }

      .cls-2 {
        fill: #0d0d0d;
      }
    </style>
  </defs>
  <g id="Hunter_DBG_copy" data-name="Hunter_DBG copy">
    <g>
      <rect x=".5" y=".5" width="39" height="39" rx="11.5" ry="11.5"/>
      <path class="cls-2" d="M28,1c6.07,0,11,4.93,11,11v16c0,6.07-4.93,11-11,11H12c-6.07,0-11-4.93-11-11V12C1,5.93,5.93,1,12,1h16M28,0H12C5.4,0,0,5.4,0,12v16c0,6.6,5.4,12,12,12h16c6.6,0,12-5.4,12-12V12c0-6.6-5.4-12-12-12h0Z"/>
    </g>
  </g>
  <g id="Layer_19" data-name="Layer 19">
    <path class="cls-1" d="M16.49,36.03h6.98v-7.57h-6.98v7.57ZM15.5,3.98l2.21,22.61h4.54l2.26-22.61h-9.01Z"/>
  </g>
</svg>