<?xml version="1.0" encoding="UTF-8"?>
<svg id="Hunter" xmlns="http://www.w3.org/2000/svg" viewBox="0 0 40 40">
  <defs>
    <style>
      .cls-1 {
        fill: #f58220;
      }

      .cls-2 {
        fill: #0d0d0d;
      }

      .cls-3 {
        fill-rule: evenodd;
      }
    </style>
  </defs>
  <g id="Hunter_NBG">
    <g>
      <rect class="cls-1" x=".5" y=".5" width="39" height="39" rx="11.5" ry="11.5"/>
      <path class="cls-2" d="M28,1c6.07,0,11,4.93,11,11v16c0,6.07-4.93,11-11,11H12c-6.07,0-11-4.93-11-11V12C1,5.93,5.93,1,12,1h16M28,0H12C5.4,0,0,5.4,0,12v16c0,6.6,5.4,12,12,12h16c6.6,0,12-5.4,12-12V12c0-6.6-5.4-12-12-12h0Z"/>
    </g>
  </g>
  <g id="Hunter_Success">
    <path class="cls-3" d="M13.52,15.62s1.47,1.83.94,4.28c-.56,2.6-3.13,4.56-3.88,7.78-1.95,8.37,6.65,8.33,6.65,8.33,0,0-3.88-1.72-1.67-7.15,1.16-2.85,5.1-5.69,5.1-5.69,0,0-3.74,6.46-.08,10.53,1.62,1.79,2.57,2.29,2.57,2.29,0,0,3.13.3,5.34-2.9,2.79-4.05.52-10.6-4.41-16.87-3.57-4.54-8.9-6.18-8.9-6.18,0,0,3.29,1.88,3.69,5.18.41,3.3-1.79,5.8-1.79,5.8,0,0,.28-1.35-.62-2.82-.92-1.51-2.96-2.58-2.96-2.58"/>
  </g>
</svg>