<?xml version="1.0" encoding="UTF-8"?>
<svg id="Vampire" xmlns="http://www.w3.org/2000/svg" viewBox="0 0 40 40">
  <defs>
    <style>
      .cls-1 {
        fill: #ff0021;
      }

      .cls-2 {
        fill: #0d0d0d;
      }

      .cls-3 {
        fill-rule: evenodd;
      }
    </style>
  </defs>
  <g id="Vampire_HBG_copy_2" data-name="Vampire_HBG copy 2">
    <g>
      <rect class="cls-1" x=".5" y=".5" width="39" height="39" rx="11.5" ry="11.5"/>
      <path class="cls-2" d="M28,1c6.07,0,11,4.93,11,11v16c0,6.07-4.93,11-11,11H12c-6.07,0-11-4.93-11-11V12C1,5.93,5.93,1,12,1h16M28,0H12C5.4,0,0,5.4,0,12v16c0,6.6,5.4,12,12,12h16c6.6,0,12-5.4,12-12V12c0-6.6-5.4-12-12-12h0Z"/>
    </g>
  </g>
  <g id="Vampire_Bestial">
    <path class="cls-3" d="M12.63,32.47c-.72-5.3-3.29-5.53-3.29-5.53,0,0-3.1-.59-3.09-1.76.02-1.31,1.23-2.26.4-4.02-.59-1.25.35-2.21.32-3.02-.06-1.4-.96-1.78-.63-4.84.67-6.07,3.52-10.26,13.92-10.38,10.36-.13,12.55,3.8,13.44,9.18.1.64.16,1.09.1,2.39-.12,2.78-.45,2.9-.48,3.82-.02.78.56,1.56.15,2.87-.71,2.27.46,2.69.24,4-.21,1.21-2.8,2.01-3.19,2.1-1.7.4-2.4,2.32-2.97,5.37-.26,1.39-.61,2.43-1.19,3.37-.32.52-.6.84-.8,1.03-.08.07-.19.09-.28.04-.09-.04-.15-.14-.15-.24.03-.81.07-2.42-.03-3.3-.08-.72-.05-2.88-.6-3.37-.69-.63-3.28-.12-4.44-.04-1.81.12-3.73-1.06-4.62.27-.45.67-.3,2.32-.37,2.98-.09.88-.05,2.49-.03,3.3,0,.1-.05.2-.15.24-.09.04-.2.03-.28-.04-.21-.19-.48-.51-.8-1.03-.58-.94-1-1.97-1.19-3.37M30.26,20.45c-.19-.55-.9-2.29-2.3-2.14-.68.07-1.96.3-2.34.7-.39.4-1.39.56-1.58.6s-1.26.02-1.34.4c-.08.38-.33,1.07,0,1.64.33.57,1.63,1.5,2.44,1.36.8-.14,1.88.45,2.69.65.95.24,2.1.38,2.5-1.11.18-.67.01-1.84-.08-2.1M10.13,20.88c.18-.21.96-2.7,2.16-2.57.68.07,1.84.31,2.24.7.4.39,1.46.57,1.65.59.19.03,1.32-.1,1.41.27.09.37.35,1.07.03,1.64-.32.57-1.6,1.54-2.41,1.41-.81-.13-2,.2-2.8.41-.81.2-1.71,1.03-2.36-.36-.3-.63-.1-1.89.08-2.1"/>
  </g>
</svg>