<?xml version="1.0" encoding="UTF-8"?>
<svg id="Vampire" xmlns="http://www.w3.org/2000/svg" viewBox="0 0 40 40">
  <defs>
    <style>
      .cls-1 {
        fill: #ff0021;
      }

      .cls-2 {
        fill: #0d0d0d;
      }

      .cls-3 {
        fill-rule: evenodd;
      }
    </style>
  </defs>
  <g id="Vampire_HBG_copy_2" data-name="Vampire_HBG copy 2">
    <g>
      <rect class="cls-1" x=".5" y=".5" width="39" height="39" rx="11.5" ry="11.5"/>
      <path class="cls-2" d="M28,1c6.07,0,11,4.93,11,11v16c0,6.07-4.93,11-11,11H12c-6.07,0-11-4.93-11-11V12C1,5.93,5.93,1,12,1h16M28,0H12C5.4,0,0,5.4,0,12v16c0,6.6,5.4,12,12,12h16c6.6,0,12-5.4,12-12V12c0-6.6-5.4-12-12-12h0Z"/>
    </g>
  </g>
  <g id="Vampire_Messy">
    <g>
      <path class="cls-3" d="M27.39,13.24c.05.03.07.03.11.07.06.05.1.12.14.19.39.59.74,1.24.83,1.93.05.39,0,.87-.29,1.18,0,0-.05.05-.11.08-.1.05-.22.04-.31,0-.05-.03-.06-.04-.1-.08-.08-.1-.21-.22-.34-.28-.28-.12-.59-.2-.89-.27-.51-.11-1.02-.17-1.54-.17-.64,0-1.28,0-1.9.11-.3.05-.59.14-.84.3-.32.19-.58.47-.7.81,0,.02-.01.03-.02.05-.15.5-.02,1.79.48,1.91.19.05.22.16.21.27-.08.88-.89,3.14-.68,5.03.03.29.29,1.58.3,1.82.11,1.66.16,3.88-.1,5.54-.26,1.66-.67,3.3-1.18,4.91-.02.07-.05.14-.07.21,0,0-.01.04-.03.06-.08.14-.3.21-.45.13-.06-.03-.11-.07-.14-.13-.02-.03-.03-.07-.04-.1-.31-.94-.57-1.89-.79-2.85-.2-.86-.38-1.73-.5-2.61-.24-1.79-.17-3.6,0-5.39.04-.41.18-1.15.22-1.56.23-2.48-.6-4.21-.67-5.11,0-.12.03-.18.24-.28.32-.16.64-1.1.53-1.69-.06-.31-.22-.59-.46-.81-.23-.21-.51-.36-.81-.44-.51-.15-1.06-.17-1.6-.18-.38,0-.77-.01-1.15.02-.51.04-1.01.12-1.49.27-.24.07-.48.21-.67.35-.03.02-.06.04-.08.07l-.05.05s-.06.04-.11.06c-.08.03-.17.02-.25-.01-.05-.02-.06-.04-.1-.07,0,0-.05-.05-.09-.1-.18-.22-.3-.55-.34-.83-.08-.48.04-.98.25-1.41.2-.41.49-.8.91-1.03l.06-.02c.05-.01.07-.02.12-.02.08,0,.16.03.22.09.04.04.07.09.11.13.21.25.45.48.77.61.4.16.84.18,1.27.18h1.84c-1.55-1.04-2.63-2.68-3.01-4.42-.1-.43-.15-.87-.15-1.31,0-1.05.32-2.1.91-2.98.67-.99,1.68-1.76,2.83-2.19,1.92-.71,4.21-.51,5.92.56.86.54,1.57,1.3,2.02,2.18.54,1.05.7,2.26.5,3.41-.3,1.74-1.27,3.39-2.72,4.5-.12.09-.24.18-.36.26.62,0,1.25,0,1.87,0,.48,0,.97-.02,1.39-.24.29-.15.51-.39.71-.64l.04-.05s.07-.05.11-.06c.04-.01.08-.02.13-.02.04,0,.08.01.12.03M20.03,5.57c-.79,0-1.57.23-2.19.71-.48.37-.84.87-1.07,1.41-.23.54-.33,1.12-.32,1.71.02.91.27,1.68.81,2.43.38.53.88,1.13,1.42,1.52.13.09.17-.04.17-.04v-.28c0-.38.03-.75-.02-1.12-.03-.2-.09-.4-.21-.57-.12-.17-.29-.3-.47-.42h-.01s-.05-.05-.05-.05c-.04-.04-.05-.05-.07-.11-.05-.12-.01-.26.09-.35.05-.04.06-.05.13-.07.31-.11.6-.29.84-.51.28-.27.49-.6.66-.93l.03-.05s.03-.03.04-.05c.14-.12.39-.11.5.05.04.05.06.11.09.17.3.58.76,1.11,1.44,1.33,0,0,.04.01.07.03.12.06.18.2.16.32-.01.06-.04.12-.09.17-.03.03-.06.05-.09.07-.23.16-.43.34-.54.59-.15.32-.13.69-.13,1.05,0,.15,0,.31,0,.46v.31c0,.11.11.08.17.05.34-.16,1.26-1.33,1.67-1.98.29-.47.4-1.19.51-1.72.04-.2.05-.41.03-.62-.05-1.04-.48-2.08-1.33-2.76-.61-.49-1.42-.74-2.23-.75h-.03Z"/>
      <path class="cls-3" d="M16.24,18.51c.6-.02-.49,1.05-.83,1.89-.4,1.01-.69,3.63-.8,4.65-.11,1-.04,2.94-.02,3.62,0,.06-.03.11-.08.14-.05.03-.11.03-.16,0-.22-.15-.57-.49-1.04-1.23-.59-.96-.88-2.04-1.22-3.45-.35-1.43-.33-2.96-.42-3.58-.18-1.2-1.64-1.6-1.28-1.97.07-.07.26-.07.27-.07,0,0,0,0,0,0h5.56Z"/>
      <path class="cls-3" d="M23.88,18.49c-.6-.02.49,1.05.83,1.89.4,1.01.69,3.63.8,4.65.11,1,.04,2.94.02,3.62,0,.06.03.11.08.14.05.03.11.03.16,0,.22-.15.57-.49,1.04-1.23.59-.96.88-2.04,1.22-3.45.35-1.43.33-2.96.42-3.58.18-1.2,1.64-1.6,1.28-1.97-.07-.07-.26-.07-.27-.07,0,0,0,0,0,0h-5.56"/>
    </g>
  </g>
</svg>