<?xml version="1.0" encoding="UTF-8"?>
<svg id="Werewolf" xmlns="http://www.w3.org/2000/svg" version="1.1" viewBox="0 0 40 40">
  <!-- Generator: Adobe Illustrator 29.8.3, SVG Export Plug-In . SVG Version: 2.1.1 Build 3)  -->
  <defs>
    <style>
      .st0 {
        fill: #fff;
        fill-rule: evenodd;
      }

      .st1 {
        fill: #0d0d0d;
      }

      .st2 {
        fill: #4a6d41;
      }
    </style>
  </defs>
  <g id="Werewolf_NBG">
    <g>
      <rect class="st2" x=".5" y=".5" width="39" height="39" rx="11.5" ry="11.5"/>
      <path class="st1" d="M28,1c6.07,0,11,4.93,11,11v16c0,6.07-4.93,11-11,11H12c-6.07,0-11-4.93-11-11V12C1,5.93,5.93,1,12,1h16M28,0H12C5.4,0,0,5.4,0,12v16c0,6.6,5.4,12,12,12h16c6.6,0,12-5.4,12-12V12c0-6.6-5.4-12-12-12h0Z"/>
    </g>
  </g>
  <g id="Werewolf_Critical">
    <path class="st0" d="M21.42,31.39l.97,2,2.12.27-1.72,1.37.53,2.3-1.92-1.34-1.97,1.37.63-2.34-1.8-1.36,2.24-.2s.92-2.07.92-2.07ZM18.63,10.12c-.5.76-.87,1.6-1.1,2.48.06.48.09.96.07,1.45l-.13.27-.89,1.15-.34.74c-.17.49-.38.96-.64,1.41l-.98,1.07.43.37-.42.38-.78.61-.41.4c-.15.45-.36.88-.63,1.28l-.25-.28c-.12.06-.22.14-.3.25-.84,1.1-1.59,2.28-2.23,3.51l-.36,1.32c-.02.19-.17.35-.36.39-.19.05-.39-.03-.5-.19-.21-.87-.25-1.76-.13-2.65.11-.46.28-.89.53-1.3l.87-1.51.96-1.5.69-.24,1.15-1.81.83-.92.67-1.33.99-1.1.45-.59.05-1.24c.35-.79.79-1.53,1.32-2.21.43-.25.94-.32,1.42-.21M22.36,4.65l2.12.27-1.72,1.37.53,2.3-1.92-1.34-1.96,1.37.63-2.34-1.8-1.36,2.24-.2.91-2.07s.97,2,.97,2ZM18.72,20.97l-.62,1.32-1.36,1.46-1.89,3.2-.35,1.16-.43.14-.15,1.13c.21.35.32.75.31,1.16-.38.49-.68,1.04-.88,1.64-.06.67-.13,1.34-.22,2.01-.95-.57-1.58-1.55-1.68-2.66.02-.58.18-1.15.46-1.65.31-.67.41-1.41.28-2.14.02-.77.22-1.53.58-2.22l.96-.88c.54-1.09,1.1-2.18,1.66-3.26l1.11-.38c.7-1.05,1.31-2.16,1.81-3.31-.19.06-.39-.03-.49-.2-.07-.13-.07-.29-.01-.43s.17-.25.31-.3c.5-.25.95-.57,1.35-.95.29-.85.55-1.71.76-2.58.27-.26.51-.54.72-.85.05-.82.07-1.65.07-2.48.78.62,1.38,1.44,1.74,2.37.2.86.25,1.74.15,2.62-.16-.37-.41-.69-.73-.93-.05.36-.08.73-.09,1.09-.07.88-.35,1.74-.83,2.49-.75,1.22-1.6,2.38-2.55,3.45M27.04,12.73c.43-.15.83-.38,1.18-.68-.3,1.18-.68,2.34-1.14,3.47l-.74.97-.64,1.4.25.09c-.39.74-.88,1.41-1.48,1.99-.31.37-.57.79-.76,1.24-.17.87-.33,1.74-.49,2.6-.01.22-.16.4-.37.47-.3-.11-.54-.34-.65-.63-.59.75-1.08,1.57-1.45,2.45l.25.73-.85,1.26c0,.69.03,1.37.09,2.06-.1.26-.31.46-.56.57-.26.1-.54.1-.8,0-.09-.6-.15-1.21-.17-1.81.02-1.69.23-3.37.63-5.02.37-.41.82-.75,1.31-1,.16-.46.14-.97-.06-1.42l1.49-2.12c.17-.04.33-.09.48-.16.44-.87.84-1.76,1.2-2.67l.69-.28.34-1.17c.46-.51.86-1.08,1.19-1.69.12-.67.23-1.34.32-2.01.26.45.5.9.72,1.36M27.87,18.56c.16-1.33.86-2.53,1.94-3.33.35.32.43.84.19,1.25-.19.37-.35.75-.49,1.14-.12.73-.25,1.46-.39,2.19-.18.43-.36.86-.51,1.3.1.5.17,1.01.22,1.51-.26.56-.61,1.08-1.03,1.54.03.45-.07.9-.29,1.3l-.74.58-.44,1.25c-.38.54-.75,1.09-1.11,1.64-.19.68-.37,1.36-.55,2.04-.65-.49-1.01-1.28-.95-2.09.4-.72.77-1.46,1.11-2.21.05-.5.09-1,.13-1.5.29-.85.67-1.67,1.11-2.46.14.16.36.22.56.16s.34-.26.35-.47c.11-.84.22-1.68.33-2.51.16-.46.35-.91.57-1.34"/>
  </g>
</svg>