<?xml version="1.0" encoding="UTF-8"?>
<svg id="Werewolf" xmlns="http://www.w3.org/2000/svg" viewBox="0 0 40 40">
  <defs>
    <style>
      .cls-1 {
        fill: #ff4337;
      }

      .cls-2, .cls-3 {
        fill: #0d0d0d;
      }

      .cls-3 {
        fill-rule: evenodd;
      }
    </style>
  </defs>
  <g id="Werewolf_RBG">
    <g>
      <rect class="cls-1" x=".5" y=".5" width="39" height="39" rx="11.5" ry="11.5"/>
      <path class="cls-2" d="M28,1c6.07,0,11,4.93,11,11v16c0,6.07-4.93,11-11,11H12c-6.07,0-11-4.93-11-11V12C1,5.93,5.93,1,12,1h16M28,0H12C5.4,0,0,5.4,0,12v16c0,6.6,5.4,12,12,12h16c6.6,0,12-5.4,12-12V12c0-6.6-5.4-12-12-12h0Z"/>
    </g>
  </g>
  <g id="Werewolf_Success">
    <path class="cls-3" d="M18.98,3.88c-.67,1.03-1.17,2.17-1.49,3.36.09.65.12,1.3.1,1.96l-.17.37-1.21,1.56-.45,1c-.23.66-.52,1.3-.86,1.91l-1.33,1.45.59.51-.57.51-1.05.82-.55.55c-.2.62-.49,1.2-.86,1.73l-.34-.39c-.16.08-.3.19-.41.34-1.14,1.5-2.15,3.08-3.01,4.75l-.49,1.79c-.03.26-.23.47-.48.53-.26.06-.52-.04-.67-.26-.28-1.17-.34-2.39-.17-3.58.14-.62.38-1.21.71-1.76l1.18-2.05,1.3-2.03.94-.32,1.56-2.45,1.12-1.25.9-1.8,1.34-1.5.62-.8.07-1.68c.47-1.07,1.07-2.07,1.79-2.99.58-.34,1.27-.44,1.92-.29M19.11,18.56l-.83,1.78-1.83,1.98-2.56,4.33-.47,1.56-.58.19-.21,1.53c.29.47.43,1.02.42,1.57-.52.67-.93,1.41-1.19,2.22-.08.91-.17,1.82-.29,2.72-1.29-.77-2.13-2.1-2.28-3.6.03-.78.24-1.55.63-2.24.42-.9.55-1.91.38-2.9.03-1.05.3-2.08.78-3.01l1.3-1.19c.74-1.48,1.49-2.95,2.25-4.41l1.51-.52c.95-1.42,1.77-2.92,2.45-4.49-.26.08-.53-.04-.66-.27-.09-.18-.1-.39-.02-.58.08-.19.23-.34.42-.41.67-.33,1.28-.77,1.82-1.29.4-1.15.74-2.32,1.03-3.5.37-.35.69-.73.98-1.14.07-1.12.1-2.23.09-3.35,1.05.85,1.87,1.95,2.36,3.21.27,1.16.34,2.36.21,3.54-.22-.5-.56-.93-.99-1.26-.07.49-.11.99-.12,1.48-.09,1.2-.48,2.36-1.13,3.37-1.01,1.65-2.17,3.22-3.45,4.67M30.37,7.41c.58-.21,1.12-.52,1.59-.92-.4,1.6-.92,3.17-1.54,4.69l-1,1.32-.86,1.9.33.12c-.52,1-1.2,1.91-2,2.7-.42.51-.77,1.07-1.02,1.68-.22,1.17-.44,2.35-.66,3.53-.02.29-.21.54-.49.63-.4-.15-.73-.45-.89-.85-.8,1.01-1.46,2.12-1.96,3.31l.34.98-1.15,1.71c0,.93.04,1.86.12,2.79-.14.35-.42.62-.76.77-.35.14-.74.14-1.08,0-.13-.81-.2-1.63-.23-2.45.03-2.29.31-4.57.85-6.79.5-.56,1.11-1.02,1.78-1.36.21-.63.18-1.31-.08-1.92l2.02-2.86c.22-.05.44-.13.65-.22.6-1.18,1.14-2.38,1.62-3.61l.93-.38.46-1.58c.63-.7,1.16-1.47,1.61-2.29.17-.9.31-1.81.44-2.72.35.6.67,1.22.98,1.84M31.5,15.31c.22-1.8,1.17-3.43,2.63-4.5.47.43.58,1.14.25,1.69-.25.5-.47,1.02-.66,1.55-.16.99-.34,1.98-.52,2.97-.25.58-.48,1.17-.7,1.76.13.68.23,1.36.3,2.05-.35.76-.82,1.47-1.4,2.08.04.61-.1,1.22-.4,1.76l-1,.79-.6,1.69c-.52.73-1.02,1.47-1.51,2.22-.25.92-.5,1.84-.75,2.76-.89-.66-1.37-1.73-1.28-2.83.54-.98,1.04-1.97,1.5-2.98.07-.68.12-1.35.17-2.03.4-1.15.9-2.27,1.51-3.32.19.22.49.3.76.21.27-.1.46-.35.47-.64.15-1.13.3-2.27.45-3.4.21-.62.47-1.23.77-1.82"/>
  </g>
</svg>