<?xml version="1.0" encoding="UTF-8"?>
<svg id="Werewolf" xmlns="http://www.w3.org/2000/svg" viewBox="0 0 40 40">
  <defs>
    <style>
      .cls-1 {
        fill: #ff4337;
      }

      .cls-2, .cls-3 {
        fill: #0d0d0d;
      }

      .cls-3 {
        fill-rule: evenodd;
      }
    </style>
  </defs>
  <g id="Werewolf_RBG">
    <g>
      <rect class="cls-1" x=".5" y=".5" width="39" height="39" rx="11.5" ry="11.5"/>
      <path class="cls-2" d="M28,1c6.07,0,11,4.93,11,11v16c0,6.07-4.93,11-11,11H12c-6.07,0-11-4.93-11-11V12C1,5.93,5.93,1,12,1h16M28,0H12C5.4,0,0,5.4,0,12v16c0,6.6,5.4,12,12,12h16c6.6,0,12-5.4,12-12V12c0-6.6-5.4-12-12-12h0Z"/>
    </g>
  </g>
  <g id="Werewolf_Brutal">
    <path class="cls-3" d="M31.08,6.46c.88,2.26,1.26,4.69,1.09,7.11-.27,2.52-.98,4.98-2.1,7.25-.36.64-.98,1.1-1.69,1.26-.11-1.66-.25-3.31-.42-4.96-.23-2.37-.71-4.72-1.42-7-.05-.16-.19-.27-.36-.28-.17-.01-.32.08-.39.23-.29.65-.66,1.27-1.1,1.83-.35.3-.84.38-1.27.2-.19-.7-.37-1.4-.53-2.1-.12-.24-.36-.4-.63-.41-.27-.01-.52.11-.67.34-.27.67-.59,1.33-.93,1.98-.09.27-.34.46-.63.47-.3.01-.57-.18-.66-.46-.35-.64-.66-1.3-.93-1.97-.14-.23-.4-.36-.66-.35-.27.01-.51.17-.63.41-.16.7-.33,1.41-.53,2.1-.43.17-.92.09-1.27-.2-.44-.57-.81-1.18-1.1-1.83-.07-.15-.22-.24-.39-.23-.16.01-.31.12-.36.28-.71,2.28-1.18,4.62-1.42,7-.17,1.65-.31,3.31-.42,4.96-.72-.16-1.33-.62-1.69-1.26-1.12-2.27-1.84-4.73-2.1-7.25-.16-2.42.21-4.85,1.09-7.12.22-.21.48-.38.76-.5.64-.18,1.31-.23,1.98-.16.36.01.72.03,1.08.07.21-.02.43,0,.63.06.31.09.64-.08.73-.39.08-.24.17-.48.27-.71.56-.16,1.16-.16,1.72,0l.77.66c.13.12.32.16.49.1.17-.05.3-.18.35-.36.31-.54.79-.96,1.36-1.19.3-.08.61-.06.9.04.29-.1.6-.12.9-.04.58.23,1.06.65,1.36,1.19.05.17.18.31.35.36.17.05.35.01.49-.1l.77-.66c.56-.16,1.16-.16,1.73,0,.1.23.19.47.27.71.1.31.42.48.73.39.2-.06.42-.08.63-.06.36-.03.72-.05,1.08-.07.66-.07,1.33-.02,1.98.16.28.12.54.29.76.5M25.21,24.23c.82-.05,1.58.44,1.88,1.21.65,1.15,1.14,2.38,1.43,3.67.21,2.18-.6,4.34-2.19,5.84-.37.25-.84.32-1.27.19-.43-.12-.78-.43-.97-.84-.22.52-.57.97-1.01,1.32-.24.09-.5.09-.73,0l-.76-.55c-.27-.03-.52.15-.56.42-.23.33-.61.52-1.01.53-.4,0-.78-.2-1.01-.53-.04-.27-.29-.45-.56-.42l-.76.55c-.24.09-.5.09-.73,0-.45-.35-.8-.8-1.01-1.32-.19.41-.54.71-.97.84-.43.12-.89.06-1.27-.19-1.59-1.5-2.4-3.66-2.19-5.84.3-1.29.78-2.53,1.43-3.67.3-.77,1.06-1.26,1.88-1.21-.04.65-.13,1.29-.27,1.93-.19,1.01-.21,2.05-.04,3.07.61.96,1.04,2.03,1.28,3.14.31-.38.67-.71,1.07-.99.22-.16.5-.22.77-.18.24.46.44.94.59,1.44.06.15.2.25.36.27s.32-.06.4-.19c.21-.51.47-1.01.75-1.48.06-.11.17-.18.29-.19.12.02.23.09.29.19.29.48.54.97.75,1.48.09.13.24.21.4.19s.3-.12.36-.27c.14-.5.34-.98.59-1.44.27-.04.55.03.77.18.4.28.75.62,1.07.99.23-1.12.67-2.18,1.27-3.14.17-1.02.15-2.06-.04-3.07-.15-.63-.24-1.28-.27-1.93"/>
  </g>
</svg>